<svg width="1931" height="190" xmlns="http://www.w3.org/2000/svg" fill="none">

 <g>
  <title>Layer 1</title>
  <path id="svg_1" fill="#FFF7E1" d="m-494,10l109.458,30c109.459,30 328.3753,90 547.292,114c218.917,24 437.833,12 656.75,-18c218.92,-30 437.83,-78 656.75,-120c218.92,-42 437.83,-78 547.29,-96l109.46,-18l0,288l-109.46,0c-109.46,0 -328.37,0 -547.29,0c-218.92,0 -437.83,0 -656.75,0c-218.917,0 -437.833,0 -656.75,0c-218.9167,0 -437.833,0 -547.292,0l-109.458,0l0,-180z" clip-rule="evenodd" fill-rule="evenodd"/>
 </g>
</svg>