<svg width="1904" height="298" viewBox="0 0 1904 298" fill="none" xmlns="http://www.w3.org/2000/svg">
<path fill-rule="evenodd" clip-rule="evenodd" d="M2812 111.75L2674.96 142.792C2537.92 173.833 2263.83 235.917 1989.75 260.75C1715.67 285.583 1441.58 273.167 1167.5 242.125C893.417 211.083 619.333 161.417 345.25 117.958C71.1667 74.5 -202.917 37.25 -339.958 18.625L-477 0V298H-339.958C-202.917 298 71.1667 298 345.25 298C619.333 298 893.417 298 1167.5 298C1441.58 298 1715.67 298 1989.75 298C2263.83 298 2537.92 298 2674.96 298H2812V111.75Z" fill="white"/>
</svg>
