<svg width="1904" height="288" viewBox="0 0 1904 288" fill="none" xmlns="http://www.w3.org/2000/svg">
<path fill-rule="evenodd" clip-rule="evenodd" d="M2149 108L2039.54 138C1930.08 168 1711.17 228 1492.25 252C1273.33 276 1054.42 264 835.5 234C616.583 204 397.667 156 178.75 114C-40.1667 72 -259.083 36 -368.542 18L-478 0V288H-368.542C-259.083 288 -40.1667 288 178.75 288C397.667 288 616.583 288 835.5 288C1054.42 288 1273.33 288 1492.25 288C1711.17 288 1930.08 288 2039.54 288H2149V108Z" fill="#FFF7E1"/>
</svg>
