<svg width="1904" height="288" viewBox="0 0 1904 288" fill="none" xmlns="http://www.w3.org/2000/svg">
<path fill-rule="evenodd" clip-rule="evenodd" d="M-477 108L-367.542 138C-258.083 168 -39.1667 228 179.75 252C398.667 276 617.583 264 836.5 234C1055.42 204 1274.33 156 1493.25 114C1712.17 72 1931.08 36 2040.54 18L2150 0V288H2040.54C1931.08 288 1712.17 288 1493.25 288C1274.33 288 1055.42 288 836.5 288C617.583 288 398.667 288 179.75 288C-39.1667 288 -258.083 288 -367.542 288H-477V108Z" fill="#FFF7E1"/>
</svg>
