<svg width="1904" height="288" xmlns="http://www.w3.org/2000/svg" fill="none">
 <g>
  <title>Layer 1</title>
  <path fill-rule="evenodd" clip-rule="evenodd" d="m-477,182l109.458,-30c109.459,-30 44.3753,230 141.292,74c96.9167,-156 675.83,-195 921.75,-164c245.92,31 953.83,182 1233.75,231c279.92,49 1.83,-39 111.29,-21l109.46,18l0,-288l-109.46,0c-109.46,0 -328.37,0 -547.29,0c-218.92,0 -437.83,0 -656.75,0c-218.917,0 -437.833,0 -656.75,0c-218.9167,0 -437.833,0 -547.292,0l-109.458,0l0,180z" fill="#F9B300" id="svg_1"/>
 </g>

</svg>