<svg width="1904" height="288" viewBox="0 0 1904 288" fill="none" xmlns="http://www.w3.org/2000/svg">
<path fill-rule="evenodd" clip-rule="evenodd" d="M-346 108L-236.542 138C-127.083 168 91.8333 228 310.75 252C529.667 276 748.583 264 967.5 234C1186.42 204 1405.33 156 1624.25 114C1843.17 72 2062.08 36 2171.54 18L2281 0V288H2171.54C2062.08 288 1843.17 288 1624.25 288C1405.33 288 1186.42 288 967.5 288C748.583 288 529.667 288 310.75 288C91.8333 288 -127.083 288 -236.542 288H-346V108Z" fill="#F5F5F5"/>
</svg>
