<svg width="711" height="1466" viewBox="0 0 711 1466" fill="none" xmlns="http://www.w3.org/2000/svg">
<path fill-rule="evenodd" clip-rule="evenodd" d="M846.646 -117.886C968.951 -85.7999 1108.59 -141.543 1211.03 -55.6646C1328.09 42.4782 1441.59 190.929 1443.01 382.09C1444.41 571.81 1297.73 715.54 1218 885.616C1140.5 1050.96 1107.56 1258.9 982.984 1363.45C853.481 1472.13 692.386 1486.33 553.766 1443.07C421.909 1401.91 340.168 1256.53 247.04 1133.77C149.912 1005.73 -8.02012 905.387 0.737113 714.062C9.59009 520.645 204.937 423.983 287.364 252.781C365.257 90.9965 336.279 -165.61 465.498 -251.251C594.784 -336.936 713.71 -152.761 846.646 -117.886Z" fill="#F9B300"/>
</svg>
